<svg version="1.1" xmlns="http://www.w3.org/2000/svg" width="512px" height="512px" transform="rotate(0) scale(1, 1)">
<path d="M0 0 C25.57548474 17.10659864 57.1641748 23.35071774 87.4375 17.8125 C102.9363299 14.55464031 117.94694623 9.14319412 130.98510742 0.0402832 C136.67241815 -3.91620949 141.30400679 -6.53092687 148.46875 -5.953125 C154.05612461 -4.5121705 158.94691652 -1.78581771 163.4375 1.8125 C164.14822033 3.12288118 164.82327167 4.45421219 165.4375 5.8125 C163.87515625 6.94171875 163.87515625 6.94171875 162.28125 8.09375 C133.00894061 29.62621565 112.31469244 57.47548517 102.125 92.5 C101.76112183 93.74559692 101.76112183 93.74559692 101.38989258 95.01635742 C97.94759713 107.45315551 97.05871785 119.72680298 97.125 132.5625 C97.12715515 133.31428528 97.1293103 134.06607056 97.13153076 134.84063721 C97.18193753 145.79463919 97.59399797 156.17650004 100.4375 166.8125 C100.62022461 167.55435547 100.80294922 168.29621094 100.99121094 169.06054688 C105.8395497 188.56535797 114.35632679 206.76008965 126.4375 222.8125 C127.77697582 224.80839136 129.11106353 226.80791923 130.4375 228.8125 C108.08839098 228.90608525 85.73931443 228.97654867 63.39004898 229.01974869 C53.01208177 229.04034346 42.63423655 229.06840493 32.25634766 229.11425781 C23.20731863 229.15422018 14.158378 229.17995522 5.10926318 229.18885398 C0.32111587 229.19405284 -4.46677865 229.20620736 -9.25484467 229.23542023 C-13.76924252 229.26273808 -18.28328544 229.27091218 -22.7977581 229.26493073 C-24.44722109 229.26602369 -26.09669697 229.27387956 -27.74608803 229.2893219 C-42.08740485 229.41691155 -53.20058076 227.05273449 -64.5625 217.8125 C-65.18769531 217.33554687 -65.81289062 216.85859375 -66.45703125 216.3671875 C-73.67467706 210.1433936 -78.96447583 199.13663737 -80.5625 189.8125 C-80.65945247 188.06615467 -80.71030355 186.31685483 -80.72363281 184.56787109 C-80.73309433 183.53873596 -80.74255585 182.50960083 -80.75230408 181.44927979 C-80.75889793 179.78442535 -80.75889793 179.78442535 -80.765625 178.0859375 C-80.77263931 176.92253845 -80.77965363 175.7591394 -80.78688049 174.56048584 C-80.80448372 170.76945168 -80.81074446 166.97857368 -80.8125 163.1875 C-80.81317474 161.8951947 -80.81384949 160.6028894 -80.81454468 159.27142334 C-80.79799764 139.34600079 -80.2740951 119.68701571 -77.82220459 99.90759277 C-77.54562778 97.6763882 -77.27798577 95.44419614 -77.01025391 93.21191406 C-76.43722346 88.49067251 -75.81948622 83.77616621 -75.1875 79.0625 C-75.04811508 77.98817719 -75.04811508 77.98817719 -74.90591431 76.89215088 C-71.23955208 49.13640703 -57.37924761 22.07012401 -35.41015625 4.171875 C-23.15757733 -5.21823493 -13.54339359 -9.46896712 0 0 Z " fill="#D6B68A" transform="translate(112.5625,219.1875)"/>
<path d="M0 0 C1.00639023 0.00555908 1.00639023 0.00555908 2.03311157 0.01123047 C33.38495753 0.2562429 60.73993894 11.33906181 83.8125 32.4375 C85.01132812 33.51257813 85.01132812 33.51257813 86.234375 34.609375 C97.56148409 45.29381124 105.53276642 58.30995298 111.8125 72.4375 C112.53566406 74.03658203 112.53566406 74.03658203 113.2734375 75.66796875 C125.08910956 103.91816649 124.06595354 137.41471209 113.125 165.6875 C107.2102296 180.07249834 99.2791497 191.99151466 88.8125 203.4375 C88.09578125 204.23671875 87.3790625 205.0359375 86.640625 205.859375 C75.95113213 217.19184489 62.93891101 225.14340735 48.8125 231.4375 C47.75804687 231.91960937 46.70359375 232.40171875 45.6171875 232.8984375 C17.44532452 244.78681958 -16.28352151 243.72084892 -44.5 232.75 C-58.84811581 226.82188604 -70.76279077 218.884694 -82.1875 208.4375 C-82.98671875 207.72078125 -83.7859375 207.0040625 -84.609375 206.265625 C-95.93648409 195.58118876 -103.90776642 182.56504702 -110.1875 168.4375 C-110.66960937 167.37144531 -111.15171875 166.30539062 -111.6484375 165.20703125 C-121.66913861 141.24844586 -123.02961282 111.20615337 -115.1875 86.4375 C-114.84847656 85.27605469 -114.50945312 84.11460937 -114.16015625 82.91796875 C-109.58113079 68.65943751 -102.27476849 54.53547713 -92.1875 43.4375 C-91.47980469 42.6125 -90.77210938 41.7875 -90.04296875 40.9375 C-67.24127881 14.74151295 -34.78281344 -0.28141079 0 0 Z M-11.4375 52.75 C-13.36488139 55.35033153 -13.36488139 55.35033153 -13.8125 58.5 C-15.1875 61.4375 -15.1875 61.4375 -17.21484375 62.4609375 C-18.96179314 63.09080831 -20.7106136 63.71550568 -22.4609375 64.3359375 C-31.38289119 67.94050905 -36.99396764 74.98073668 -41.1875 83.4375 C-44.61587302 93.2869061 -44.89877074 104.9637502 -40.3046875 114.46875 C-30.72104915 131.3573994 -7.34336614 135.18908285 9.91162109 139.98193359 C11.81086944 140.51518706 11.81086944 140.51518706 13.8125 140.4375 C13.1525 142.7475 12.4925 145.0575 11.8125 147.4375 C1.24754848 150.82625803 -8.19768672 148.95003248 -18.1875 144.4375 C-19.02796875 143.90769531 -19.8684375 143.37789063 -20.734375 142.83203125 C-24.55830486 140.65823673 -27.90763435 140.78414144 -32.1875 141.4375 C-36.11887105 142.79924692 -38.79199864 145.01157546 -41.625 148.0625 C-43.7441208 152.63980092 -43.98773162 156.47444732 -43.1875 161.4375 C-39.82155423 168.16939153 -34.49692602 171.53682694 -27.8125 174.625 C-26.73226562 175.13417969 -25.65203125 175.64335937 -24.5390625 176.16796875 C-21.05696312 177.48694579 -17.88065552 178.04948493 -14.1875 178.4375 C-14.125625 179.46875 -14.06375 180.5 -14 181.5625 C-12.97595462 186.44640873 -11.72670596 187.97873054 -8.1875 191.4375 C-4.13295478 193.84831067 0.19690906 194.01784935 4.8125 193.4375 C9.51034081 191.72098124 12.08836044 189.62100004 14.8125 185.4375 C15.19148438 183.94089844 15.19148438 183.94089844 15.578125 182.4140625 C16.8125 179.4375 16.8125 179.4375 19.28125 178.07421875 C20.2815625 177.76097656 21.281875 177.44773437 22.3125 177.125 C32.15050372 173.41655682 38.64424086 167.26486273 42.97265625 157.69921875 C46.02089775 149.49023351 46.63341589 137.6166541 43.25 129.375 C36.23519418 116.71413096 24.42429414 110.71503872 11.00952148 106.57177734 C8.15922042 105.76816608 5.30227611 105.0002985 2.4375 104.25 C1.46683594 103.99025391 0.49617188 103.73050781 -0.50390625 103.46289062 C-4.39145797 102.42531648 -8.28205894 101.40571222 -12.1875 100.4375 C-11.5275 98.1275 -10.8675 95.8175 -10.1875 93.4375 C0.18863 90.10930736 9.10678849 91.7828959 18.8125 96.4375 C19.8025 97.015 20.7925 97.5925 21.8125 98.1875 C26.17895056 100.0068544 30.15054899 100.11325511 34.8125 99.4375 C39.65108548 97.10781069 42.48281069 94.27608548 44.8125 89.4375 C45.58879782 84.5737565 45.37370148 80.70630335 43.375 76.1875 C37.00917826 69.35588643 28.61730975 65.3172207 19.8125 62.4375 C18.4925 62.4375 17.1725 62.4375 15.8125 62.4375 C15.750625 61.40625 15.68875 60.375 15.625 59.3125 C14.60095462 54.42859127 13.35170596 52.89626946 9.8125 49.4375 C2.51688814 45.09956862 -5.72974226 46.88369343 -11.4375 52.75 Z " fill="#D6B68A" transform="translate(359.1875,231.5625)"/>
<path d="M0 0 C14.49198175 12.4333458 24.77465909 29.7005838 27.15234375 48.8203125 C28.82704861 71.64440671 24.40826837 92.9537358 9.140625 110.65234375 C8.48449219 111.36777344 7.82835937 112.08320313 7.15234375 112.8203125 C6.52714844 113.52542969 5.90195313 114.23054687 5.2578125 114.95703125 C-7.14414785 128.21778315 -25.4322022 136.30151796 -43.44140625 137.13671875 C-65.50438917 137.76061224 -85.17040883 133.27219519 -101.84765625 118.0078125 C-117.39488841 103.03896023 -126.62364555 84.32517693 -127.32080078 62.66625977 C-127.52169626 41.37681844 -121.14986601 22.46363835 -106.63671875 6.66015625 C-77.61540388 -22.88955791 -32.61873789 -24.967429 0 0 Z " fill="#D6B68A" transform="translate(225.84765625,59.1796875)"/>
</svg>