<svg width="70" height="70" viewBox="0 0 70 70" fill="none" xmlns="http://www.w3.org/2000/svg">
<path d="M52.5 8.75C50.1794 8.75 47.9538 9.67187 46.3128 11.3128C44.6719 12.9538 43.75 15.1794 43.75 17.5V52.5C43.75 54.8206 44.6719 57.0462 46.3128 58.6872C47.9538 60.3281 50.1794 61.25 52.5 61.25C54.8206 61.25 57.0462 60.3281 58.6872 58.6872C60.3281 57.0462 61.25 54.8206 61.25 52.5C61.25 50.1794 60.3281 47.9538 58.6872 46.3128C57.0462 44.6719 54.8206 43.75 52.5 43.75H17.5C15.1794 43.75 12.9538 44.6719 11.3128 46.3128C9.67187 47.9538 8.75 50.1794 8.75 52.5C8.75 54.8206 9.67187 57.0462 11.3128 58.6872C12.9538 60.3281 15.1794 61.25 17.5 61.25C19.8206 61.25 22.0462 60.3281 23.6872 58.6872C25.3281 57.0462 26.25 54.8206 26.25 52.5V17.5C26.25 15.1794 25.3281 12.9538 23.6872 11.3128C22.0462 9.67187 19.8206 8.75 17.5 8.75C15.1794 8.75 12.9538 9.67187 11.3128 11.3128C9.67187 12.9538 8.75 15.1794 8.75 17.5C8.75 19.8206 9.67187 22.0462 11.3128 23.6872C12.9538 25.3281 15.1794 26.25 17.5 26.25H52.5C54.8206 26.25 57.0462 25.3281 58.6872 23.6872C60.3281 22.0462 61.25 19.8206 61.25 17.5C61.25 15.1794 60.3281 12.9538 58.6872 11.3128C57.0462 9.67187 54.8206 8.75 52.5 8.75Z" stroke="#D6B68A" stroke-width="4" stroke-linecap="round" stroke-linejoin="round"/>
</svg>
